<svg version="1.0" xmlns="http://www.w3.org/2000/svg"
     width="214.000000pt" height="105.000000pt" viewBox="0 0 214.000000 105.000000"
     preserveAspectRatio="xMidYMid meet">

    <g transform="translate(0.000000,105.000000) scale(0.100000,-0.100000)"
       fill="#000000" stroke="none">
        <path d="M998 878 c-30 -51 -90 -154 -133 -228 -43 -74 -85 -145 -93 -157 -34
-54 5 -13 120 123 68 81 132 157 143 171 l20 25 78 -170 c42 -93 77 -174 77
-179 0 -5 -93 -24 -207 -43 l-208 -35 153 -3 c83 -1 219 -1 301 0 l150 3 -33
55 c-18 30 -93 159 -166 285 -73 127 -136 234 -140 238 -4 5 -32 -33 -62 -85z"/>
        <path d="M1010 617 c-14 -7 -26 -22 -28 -34 -3 -18 4 -24 37 -34 63 -19 48
-39 -30 -39 -28 0 -39 -4 -39 -15 0 -11 12 -15 44 -15 80 0 118 62 46 76 -17
4 -33 11 -36 16 -9 14 16 28 46 27 42 -2 50 0 50 16 0 19 -54 20 -90 2z"/>
        <path d="M1115 233 c-11 -3 -26 -10 -32 -15 -23 -19 -14 -27 19 -17 17 5 33 7
35 5 2 -2 -11 -18 -29 -37 -17 -19 -32 -41 -34 -49 -1 -8 -5 -24 -9 -35 -7
-20 -6 -20 9 -1 9 11 16 23 16 28 0 4 15 8 34 8 63 0 111 66 72 99 -17 14 -53
20 -81 14z m84 -39 c10 -9 -11 -35 -35 -45 -46 -17 -56 -8 -33 29 17 26 26 31
43 26 11 -4 23 -8 25 -10z"/>
        <path d="M1265 233 c-11 -3 -26 -10 -32 -15 -23 -19 -14 -27 19 -17 44 12 46
5 7 -33 -18 -18 -32 -37 -31 -41 1 -4 -2 -17 -8 -27 -7 -12 -7 -20 -1 -20 5 0
13 9 16 20 4 14 15 20 36 20 32 0 69 16 81 34 10 14 10 64 1 69 -15 9 -68 15
-88 10z m85 -40 c9 -8 -18 -38 -43 -47 -36 -13 -42 -3 -21 33 14 24 23 30 39
25 11 -4 22 -8 25 -11z"/>
        <path d="M792 214 c-35 -24 -29 -52 13 -60 69 -13 53 -44 -23 -44 -30 0 -42
-4 -40 -12 6 -18 68 -21 98 -5 39 20 37 44 -7 64 -21 10 -40 19 -43 21 -10 7
26 22 50 21 42 -2 50 0 50 16 0 20 -68 20 -98 -1z"/>
        <path d="M918 219 c-10 -5 -18 -17 -18 -24 0 -17 16 -20 25 -5 8 13 85 13 105
0 36 -23 -53 -100 -97 -83 -13 5 -12 9 23 63 9 14 2 9 -15 -10 -50 -57 -39
-91 23 -70 70 23 110 92 74 128 -15 15 -96 15 -120 1z"/>
    </g>
</svg>
